<svg width="54" height="54" viewBox="0 0 54 54" fill="none" xmlns="http://www.w3.org/2000/svg">
<path d="M36.8532 27.8437C37.3901 25.3876 37.1285 22.8242 36.1067 20.5271C35.0848 18.23 33.356 16.3192 31.1723 15.0733C28.9886 13.8274 26.464 13.3115 23.9666 13.6007C21.4691 13.8899 19.1293 14.9691 17.2881 16.6811C15.4469 18.3931 14.2006 20.6483 13.7307 23.1182C13.2608 25.588 13.592 28.1434 14.676 30.4118C15.76 32.6803 17.5401 34.5433 19.7569 35.7293C21.9737 36.9154 24.5113 37.3624 27 37.0054L27.8438 43.0942H23.4092L18.7017 48.3085L13.9852 46.355L14.3438 39.3398L11.5003 36.4963L4.48443 36.8549L2.53125 32.138L7.74552 27.4305V23.4092L2.53125 18.7017L4.48464 13.9852L11.5005 14.3437L14.3438 11.5004L13.9852 4.48464L18.7017 2.53125L23.4092 7.74552H27.4305L32.138 2.53125L36.854 4.48464L36.4955 11.5004L39.3398 14.3437L46.3555 13.9852L48.309 18.7012L43.0945 23.4092V27.4305L43.5141 30.375L36.8532 27.8437Z" fill="black"/>
<path d="M48.182 35.7738L51.4687 32.8065L50.2374 29.8338L45.8156 30.0597L44.0226 28.2673L44.2485 23.845L41.2758 22.6137L38.3085 25.9005H35.7738L32.8065 22.6137L29.8338 23.845L30.0596 28.2673L28.2673 30.0597L23.845 29.8338L22.6136 32.8065L25.9005 35.7738V38.3086L22.6136 41.2759L23.845 44.2486L28.2673 44.0228L30.0596 45.8156L29.8338 50.2379L32.8065 51.4688L35.7738 48.182H38.3086L41.2759 51.4688L44.2486 50.2374L44.0226 45.8156L45.8156 44.0227L50.2379 44.2485L51.4687 41.2759L48.182 38.3086V35.7738ZM37.0412 43.4234C35.7789 43.4234 34.545 43.0491 33.4954 42.3478C32.4459 41.6465 31.6278 40.6498 31.1447 39.4836C30.6617 38.3174 30.5353 37.0341 30.7815 35.7961C31.0278 34.558 31.6356 33.4208 32.5282 32.5282C33.4208 31.6357 34.558 31.0278 35.7961 30.7816C37.0341 30.5353 38.3174 30.6617 39.4836 31.1448C40.6498 31.6278 41.6465 32.4459 42.3478 33.4954C43.0491 34.545 43.4234 35.779 43.4234 37.0413C43.4233 38.7339 42.7509 40.3572 41.5541 41.5541C40.3572 42.7509 38.7339 43.4234 37.0412 43.4234Z" fill="#F6BC1B"/>
<path d="M18.4744 47.3011L14.8587 45.8034L15.1866 39.3822C15.1926 39.2644 15.1738 39.1465 15.1315 39.0363C15.0891 38.9261 15.0241 38.8261 14.9406 38.7426L12.0973 35.899C12.0137 35.8157 11.9136 35.7507 11.8035 35.7084C11.6933 35.666 11.5755 35.6472 11.4576 35.6531L5.03657 35.9811L3.53891 32.3653L8.31095 28.0569C8.39854 27.9777 8.46855 27.8811 8.51648 27.7732C8.5644 27.6653 8.58917 27.5486 8.58918 27.4305V23.4092C8.58919 23.2912 8.56444 23.1744 8.51651 23.0666C8.46859 22.9587 8.39856 22.8621 8.31095 22.7829L3.5387 18.4744L5.03636 14.8587L11.4574 15.1866C11.5753 15.1927 11.6932 15.174 11.8033 15.1316C11.9135 15.0892 12.0136 15.0241 12.097 14.9406L14.9406 12.0973C15.0241 12.0138 15.0891 11.9138 15.1315 11.8036C15.1739 11.6934 15.1926 11.5756 15.1866 11.4577L14.8587 5.03666L18.4744 3.539L22.783 8.31094C22.8621 8.39854 22.9587 8.46857 23.0666 8.5165C23.1744 8.56442 23.2912 8.58918 23.4092 8.58916H27.4305C27.5486 8.58915 27.6653 8.56439 27.7732 8.51646C27.8811 8.46854 27.9778 8.39852 28.0569 8.31094L32.3653 3.53858L35.9811 5.03624L35.6531 11.4573C35.6471 11.5752 35.6658 11.693 35.7082 11.8032C35.7506 11.9134 35.8156 12.0135 35.899 12.0969L38.7426 14.9405C38.8261 15.024 38.9261 15.089 39.0363 15.1313C39.1465 15.1737 39.2644 15.1925 39.3823 15.1864L45.8034 14.8585L47.3011 18.4743L44.9971 20.5544L46.1279 21.807L48.8742 19.328C49.0036 19.2112 49.0936 19.0573 49.1319 18.8874C49.1702 18.7174 49.155 18.5397 49.0883 18.3788L47.1348 13.6627C47.0689 13.5012 46.9542 13.3644 46.8067 13.2712C46.6592 13.178 46.4864 13.1332 46.3122 13.143L39.6709 13.4822L37.357 11.1691L37.6963 4.52798C37.7052 4.35398 37.6601 4.18148 37.567 4.03418C37.4739 3.88688 37.3376 3.77201 37.1766 3.70533L32.461 1.75173C32.3 1.68505 32.1224 1.66983 31.9524 1.70816C31.7824 1.7465 31.6285 1.83651 31.5118 1.96583L27.0555 6.90177H23.7843L19.328 1.96583C19.2113 1.83651 19.0573 1.7465 18.8874 1.70816C18.7174 1.66983 18.5398 1.68505 18.3788 1.75173L13.6628 3.70522C13.5018 3.7719 13.3654 3.88678 13.2723 4.03408C13.1793 4.18138 13.1341 4.35387 13.143 4.52788L13.4822 11.169L11.1692 13.4822L4.52779 13.143C4.35362 13.1332 4.18073 13.178 4.03325 13.2712C3.88577 13.3643 3.77106 13.5012 3.70513 13.6627L1.75175 18.3788C1.68506 18.5397 1.66984 18.7174 1.70818 18.8874C1.74651 19.0573 1.83652 19.2112 1.96585 19.328L6.90178 23.7843V27.0555L1.96585 31.5117C1.83652 31.6285 1.74651 31.7824 1.70818 31.9524C1.66984 32.1223 1.68506 32.3 1.75175 32.461L3.70524 37.177C3.77213 37.3378 3.88706 37.474 4.0343 37.5671C4.18155 37.6601 4.35394 37.7054 4.52789 37.6967L11.1692 37.357L13.4824 39.6703L13.1432 46.3115C13.1343 46.4855 13.1795 46.658 13.2725 46.8053C13.3656 46.9526 13.502 47.0675 13.663 47.1342L18.379 49.0877C18.54 49.1544 18.7176 49.1696 18.8876 49.1313C19.0575 49.0929 19.2115 49.0029 19.3282 48.8736L21.8074 46.1276L20.5547 44.9968L18.4744 47.3011Z" fill="black"/>
<path d="M25.4199 14.5585C28.0119 14.5586 30.5184 15.4854 32.487 17.1716C34.4556 18.8577 35.7564 21.1921 36.1547 23.7534L37.8226 23.4967C37.4671 21.2065 36.4843 19.0594 34.9832 17.2936C33.4821 15.5278 31.5214 14.2121 29.3183 13.4925C27.1152 12.7729 24.7559 12.6775 22.5019 13.2168C20.2479 13.756 18.1872 14.909 16.5484 16.5478C14.9096 18.1865 13.7566 20.2472 13.2172 22.5012C12.6779 24.7552 12.7733 27.1145 13.4928 29.3176C14.2123 31.5207 15.5279 33.4815 17.2937 34.9826C19.0595 36.4838 21.2065 37.4666 23.4967 37.8222L23.7534 36.1543C21.0497 35.7344 18.6041 34.3096 16.9053 32.1648C15.2065 30.0199 14.3798 27.313 14.5903 24.585C14.8008 21.8571 16.033 19.309 18.0407 17.4502C20.0484 15.5913 22.6837 14.5586 25.4198 14.5585H25.4199Z" fill="black"/>
<path d="M49.0258 37.9336V36.1488L52.0342 33.4328C52.1635 33.316 52.2535 33.1621 52.2918 32.9921C52.3302 32.8222 52.315 32.6445 52.2483 32.4835L51.0169 29.511C50.9511 29.3494 50.8364 29.2125 50.6889 29.1193C50.5414 29.0261 50.3685 28.9814 50.1943 28.9913L46.1465 29.198L44.8844 27.9358L45.0912 23.888C45.1001 23.714 45.0549 23.5415 44.9618 23.3942C44.8688 23.2469 44.7324 23.1321 44.5714 23.0654L41.5988 21.8341C41.4378 21.7674 41.2602 21.7522 41.0902 21.7905C40.9203 21.8288 40.7663 21.9188 40.6496 22.0481L37.9335 25.0565H36.1488L33.4328 22.0482C33.316 21.9189 33.1621 21.8289 32.9921 21.7906C32.8221 21.7523 32.6445 21.7675 32.4835 21.8342L29.511 23.066C29.35 23.1327 29.2136 23.2476 29.1206 23.3949C29.0275 23.5422 28.9823 23.7147 28.9913 23.8887L29.198 27.9365L27.9358 29.198L23.888 28.9913C23.7138 28.9812 23.5408 29.0259 23.3933 29.1191C23.2458 29.2123 23.1311 29.3493 23.0654 29.511L21.8341 32.4835C21.7674 32.6445 21.7522 32.8221 21.7905 32.9921C21.8288 33.1621 21.9188 33.316 22.0481 33.4328L25.0565 36.1488V37.9336L22.0482 40.6497C21.9189 40.7664 21.8289 40.9204 21.7906 41.0903C21.7523 41.2603 21.7675 41.4379 21.8342 41.5989L23.066 44.5711C23.1322 44.7324 23.2469 44.8692 23.3944 44.9623C23.5418 45.0555 23.7146 45.1004 23.8887 45.0908L27.9365 44.8841L29.1986 46.1462L28.9919 50.1939C28.983 50.368 29.0282 50.5405 29.1212 50.6878C29.2143 50.8351 29.3507 50.9499 29.5116 51.0166L32.4842 52.248C32.6451 52.3146 32.8228 52.3299 32.9927 52.2915C33.1627 52.2532 33.3166 52.1632 33.4334 52.0339L36.1494 49.0255H37.9343L40.6503 52.0339C40.767 52.1632 40.921 52.2532 41.0909 52.2915C41.2609 52.3299 41.4385 52.3146 41.5995 52.248L44.5711 51.0169C44.7321 50.9502 44.8684 50.8354 44.9615 50.6881C45.0546 50.5408 45.0998 50.3683 45.0908 50.1943L44.8841 46.1465L46.1462 44.8844L50.194 45.0912C50.3681 45.1008 50.5409 45.0559 50.6884 44.9628C50.8358 44.8696 50.9505 44.7328 51.0166 44.5714L52.248 41.5988C52.3146 41.4378 52.3299 41.2601 52.2915 41.0902C52.2532 40.9202 52.1632 40.7663 52.0339 40.6496L49.0258 37.9336ZM49.6858 43.3758L45.8578 43.1802C45.7399 43.1741 45.6221 43.1928 45.5119 43.2352C45.4017 43.2776 45.3016 43.3426 45.2181 43.4261L43.4257 45.2186C43.3422 45.3021 43.2772 45.4021 43.2349 45.5123C43.1925 45.6225 43.1737 45.7403 43.1798 45.8582L43.3753 49.6858L41.5028 50.4613L38.9345 47.6166C38.8554 47.529 38.7588 47.4589 38.6509 47.411C38.543 47.363 38.4263 47.3383 38.3083 47.3383H35.7737C35.6557 47.3383 35.5389 47.363 35.4311 47.411C35.3232 47.4589 35.2266 47.529 35.1475 47.6166L32.5793 50.4613L30.7068 49.6863L30.9023 45.8578C30.9084 45.7399 30.8896 45.622 30.8473 45.5118C30.8049 45.4016 30.7399 45.3015 30.6564 45.218L28.8634 43.4257C28.78 43.3421 28.68 43.277 28.5698 43.2346C28.4596 43.1922 28.3417 43.1735 28.2238 43.1797L24.3962 43.3753L23.6207 41.5028L26.4655 38.9345C26.5531 38.8554 26.6231 38.7588 26.671 38.6509C26.719 38.543 26.7437 38.4263 26.7437 38.3083V35.7737C26.7437 35.6557 26.7189 35.539 26.671 35.4311C26.6231 35.3232 26.5531 35.2266 26.4655 35.1475L23.6211 32.5793L24.3966 30.7069L28.2242 30.9023C28.3421 30.9086 28.46 30.8899 28.5703 30.8475C28.6805 30.8051 28.7806 30.74 28.864 30.6564L30.6569 28.8634C30.7402 28.7799 30.8051 28.6799 30.8474 28.5698C30.8897 28.4597 30.9084 28.342 30.9023 28.2242L30.7068 24.3966L32.5792 23.6211L35.1475 26.4659C35.2266 26.5535 35.3232 26.6235 35.4311 26.6714C35.539 26.7193 35.6557 26.7441 35.7737 26.7441H38.3087C38.4267 26.7441 38.5435 26.7194 38.6513 26.6715C38.7592 26.6235 38.8558 26.5535 38.9349 26.4659L41.5032 23.6211L43.3757 24.3966L43.1802 28.2242C43.1741 28.3421 43.1929 28.4599 43.2353 28.5701C43.2776 28.6803 43.3427 28.7804 43.4261 28.8638L45.2185 30.6568C45.3019 30.7402 45.402 30.8051 45.5121 30.8474C45.6222 30.8897 45.74 30.9084 45.8578 30.9023L49.6854 30.7068L50.4609 32.5792L47.6166 35.1475C47.529 35.2266 47.4589 35.3232 47.411 35.4311C47.3631 35.5389 47.3383 35.6557 47.3383 35.7737V38.3087C47.3383 38.4267 47.3631 38.5435 47.411 38.6513C47.4589 38.7592 47.529 38.8558 47.6166 38.9349L50.4613 41.5032L49.6858 43.3758Z" fill="black"/>
<path d="M37.0412 29.8153C35.6121 29.8153 34.215 30.239 33.0267 31.033C31.8384 31.827 30.9122 32.9555 30.3652 34.2759C29.8183 35.5963 29.6752 37.0492 29.954 38.4509C30.2328 39.8526 30.921 41.1402 31.9316 42.1508C32.9421 43.1613 34.2297 43.8496 35.6314 44.1284C37.0331 44.4072 38.486 44.2641 39.8064 43.7172C41.1268 43.1703 42.2553 42.2441 43.0493 41.0558C43.8433 39.8675 44.2671 38.4704 44.2671 37.0413C44.2649 35.1255 43.503 33.2888 42.1483 31.9342C40.7937 30.5795 38.957 29.8175 37.0412 29.8153ZM37.0412 42.5796C35.9458 42.5797 34.875 42.2548 33.9642 41.6463C33.0534 41.0377 32.3435 40.1727 31.9243 39.1607C31.5051 38.1487 31.3954 37.035 31.6091 35.9607C31.8228 34.8863 32.3503 33.8994 33.1248 33.1249C33.8994 32.3503 34.8863 31.8228 35.9607 31.6091C37.035 31.3954 38.1486 31.5051 39.1607 31.9243C40.1727 32.3435 41.0377 33.0534 41.6463 33.9642C42.2548 34.875 42.5796 35.9458 42.5796 37.0413C42.5779 38.5096 41.9939 39.9173 40.9556 40.9556C39.9173 41.9939 38.5096 42.578 37.0412 42.5796Z" fill="black"/>
</svg>
